<svg className="icons">
  <symbol id='All-voices' xmlns="http://www.w3.org/2000/svg"
    viewBox="0 0 512 512" >
    <g>
      <path d="M492,236H20c-11.046,0-20,8.954-20,20c0,11.046,8.954,20,20,20h472c11.046,0,20-8.954,20-20S503.046,236,492,236z" />
    </g>
    <g>
      <path d="M492,76H20C8.954,76,0,84.954,0,96s8.954,20,20,20h472c11.046,0,20-8.954,20-20S503.046,76,492,76z" />
    </g>
    <g>
      <path d="M492,396H20c-11.046,0-20,8.954-20,20c0,11.046,8.954,20,20,20h472c11.046,0,20-8.954,20-20
        C512,404.954,503.046,396,492,396z"/>
    </g>
  </symbol>
  <symbol id='Stream' xmlns="http://www.w3.org/2000/svg"
    viewBox="0 0 512 512">
    <g>
      <path d="M381.354,0H130.648c-24.813,0-45,20.187-45,45v422c0,24.813,20.187,45,45,45h250.705c24.813,0,45-20.187,45-45V45
			C426.354,20.187,406.167,0,381.354,0z M256.001,72.544c27.351,0,49.523,22.172,49.523,49.523
			c0,27.351-22.172,49.523-49.523,49.523s-49.523-22.172-49.523-49.523C206.478,94.716,228.65,72.544,256.001,72.544z
			M256.001,445.486c-65.208,0-118.258-53.05-118.258-118.257s53.05-118.258,118.258-118.258s118.258,53.05,118.258,118.258
			S321.209,445.486,256.001,445.486z"/>
    </g>
    <g>
      <path d="M256.001,277.338c-27.51,0-49.891,22.381-49.891,49.891c0,27.509,22.381,49.89,49.891,49.89s49.891-22.381,49.891-49.89
        C305.892,299.719,283.511,277.338,256.001,277.338z"/>
    </g>
  </symbol>
  <symbol id="Microphone" xmlns="http://www.w3.org/2000/svg" viewBox="0 0 435.2 435.2">
    <g>
      <path d="M356.864,224.768c0-8.704-6.656-15.36-15.36-15.36s-15.36,6.656-15.36,15.36c0,59.904-48.64,108.544-108.544,108.544
        c-59.904,0-108.544-48.64-108.544-108.544c0-8.704-6.656-15.36-15.36-15.36c-8.704,0-15.36,6.656-15.36,15.36
        c0,71.168,53.248,131.072,123.904,138.752v40.96h-55.808c-8.704,0-15.36,6.656-15.36,15.36s6.656,15.36,15.36,15.36h142.336
        c8.704,0,15.36-6.656,15.36-15.36s-6.656-15.36-15.36-15.36H232.96v-40.96C303.616,355.84,356.864,295.936,356.864,224.768z"/>
    </g>
    <g>
      <path d="M217.6,0c-47.104,0-85.504,38.4-85.504,85.504v138.752c0,47.616,38.4,85.504,85.504,86.016
        c47.104,0,85.504-38.4,85.504-85.504V85.504C303.104,38.4,264.704,0,217.6,0z"/>
    </g>
  </symbol>
  <symbol id='start' xmlns="http://www.w3.org/2000/svg" viewBox="0 0 320.001 320.001">
      <path d="M295.84,146.049l-256-144c-4.96-2.784-11.008-2.72-15.904,0.128C19.008,5.057,16,10.305,16,16.001v288
        c0,5.696,3.008,10.944,7.936,13.824c2.496,1.44,5.28,2.176,8.064,2.176c2.688,0,5.408-0.672,7.84-2.048l256-144
        c5.024-2.848,8.16-8.16,8.16-13.952S300.864,148.897,295.84,146.049z"
      />
  </symbol>
  <symbol id='stop' xmlns="http://www.w3.org/2000/svg" viewBox="0 0 409.6 409.6" >
    <g>
      <path d="M204.8,0C91.648,0,0,91.648,0,204.8s91.648,204.8,204.8,204.8s204.8-91.648,204.8-204.8S317.952,0,204.8,0z M182.272,256
        c0,12.8-10.24,22.528-22.528,22.528c-12.8,0-22.528-10.24-22.528-22.528V153.6c-0.512-12.288,9.728-22.528,22.016-22.528
        c12.8,0,23.04,10.24,23.04,22.528V256z M272.896,256c0,12.8-10.24,22.528-22.528,22.528c-12.8,0-22.528-10.24-22.528-22.528V153.6
        c-0.512-12.288,9.728-22.528,22.016-22.528c12.8,0,23.04,10.24,23.04,22.528V256z"/>
    </g>
  </symbol>
</svg>